<?xml version="1.0" encoding="utf-8"?>
<!-- Generator: Adobe Illustrator 22.1.0, SVG Export Plug-In . SVG Version: 6.00 Build 0)  -->
<svg version="1.1" id="Capa_1" xmlns="http://www.w3.org/2000/svg" xmlns:xlink="http://www.w3.org/1999/xlink" x="0px" y="0px"
	 viewBox="0 0 42 42" style="enable-background:new 0 0 42 42;" xml:space="preserve">
<style type="text/css">
	.st0{fill:#3B7DE8;}
</style>
<g>
	<title>Layer 1</title>
	<path id="svg_1" class="st0" d="M5.9,21.8l29,20c0.3,0.2,0.7,0.2,1,0.1c0.3-0.2,0.5-0.5,0.5-0.9l0-40c0-0.4-0.2-0.7-0.5-0.9
		C35.8,0,35.7,0,35.5,0c-0.2,0-0.4,0.1-0.6,0.2l-29,20c-0.3,0.2-0.4,0.5-0.4,0.8C5.5,21.3,5.7,21.6,5.9,21.8z M34.5,2.9l0,36.2
		L8.3,21L34.5,2.9z"/>
	<g id="svg_2">
	</g>
	<g id="svg_3">
	</g>
	<g id="svg_4">
	</g>
	<g id="svg_5">
	</g>
	<g id="svg_6">
	</g>
	<g id="svg_7">
	</g>
	<g id="svg_8">
	</g>
	<g id="svg_9">
	</g>
	<g id="svg_10">
	</g>
	<g id="svg_11">
	</g>
	<g id="svg_12">
	</g>
	<g id="svg_13">
	</g>
	<g id="svg_14">
	</g>
	<g id="svg_15">
	</g>
	<g id="svg_16">
	</g>
</g>
</svg>
